<svg xmlns="http://www.w3.org/2000/svg" viewBox="0 0 744 600" width="800" height="600">
  <circle cx="120" cy="30" r="9" fill="#222" />
  <circle cx="150" cy="30" r="9" fill="#222" />
  <circle cx="180" cy="30" r="9" fill="#222" />
  <circle cx="210" cy="30" r="9" fill="#222" />
  <circle cx="240" cy="30" r="9" fill="#222" />
  <circle cx="630" cy="30" r="9" fill="#222" />
  <circle cx="660" cy="30" r="9" fill="#222" />
  <circle cx="90" cy="60" r="9" fill="#222" />
  <circle cx="120" cy="60" r="9" fill="#222" />
  <circle cx="150" cy="60" r="9" fill="#222" />
  <circle cx="180" cy="60" r="9" fill="#222" />
  <circle cx="210" cy="60" r="9" fill="#222" />
  <circle cx="240" cy="60" r="9" fill="#222" />
  <circle cx="270" cy="60" r="9" fill="#222" />
  <circle cx="300" cy="60" r="9" fill="#222" />
  <circle cx="330" cy="60" r="9" fill="#222" />
  <circle cx="360" cy="60" r="9" fill="#222" />
  <circle cx="450" cy="60" r="9" fill="#222" />
  <circle cx="480" cy="60" r="9" fill="#222" />
  <circle cx="510" cy="60" r="9" fill="#222" />
  <circle cx="540" cy="60" r="9" fill="#222" />
  <circle cx="570" cy="60" r="9" fill="#222" />
  <circle cx="600" cy="60" r="9" fill="#222" />
  <circle cx="630" cy="60" r="9" fill="#222" />
  <circle cx="660" cy="60" r="9" fill="#222" />
  <circle cx="90" cy="90" r="9" fill="#222" />
  <circle cx="120" cy="90" r="9" fill="#222" />
  <circle cx="150" cy="90" r="9" fill="#222" />
  <circle cx="180" cy="90" r="9" fill="#222" />
  <circle cx="210" cy="90" r="9" fill="#222" />
  <circle cx="240" cy="90" r="9" fill="#222" />
  <circle cx="270" cy="90" r="9" fill="#222" />
  <circle cx="300" cy="90" r="9" fill="#222" />
  <circle cx="330" cy="90" r="9" fill="#222" />
  <circle cx="360" cy="90" r="9" fill="#222" />
  <circle cx="390" cy="90" r="9" fill="#222" />
  <circle cx="420" cy="90" r="9" fill="#222" />
  <circle cx="450" cy="90" r="9" fill="#222" />
  <circle cx="480" cy="90" r="9" fill="#222" />
  <circle cx="510" cy="90" r="9" fill="#222" />
  <circle cx="540" cy="90" r="9" fill="#222" />
  <circle cx="570" cy="90" r="9" fill="#222" />
  <circle cx="600" cy="90" r="9" fill="#222" />
  <circle cx="630" cy="90" r="9" fill="#222" />
  <circle cx="660" cy="90" r="9" fill="#222" />
  <circle cx="690" cy="90" r="9" fill="#222" />
  <circle cx="90" cy="120" r="9" fill="#222" />
  <circle cx="120" cy="120" r="9" fill="#222" />
  <circle cx="150" cy="120" r="9" fill="#222" />
  <circle cx="180" cy="120" r="9" fill="#222" />
  <circle cx="210" cy="120" r="9" fill="#222" />
  <circle cx="240" cy="120" r="9" fill="#222" />
  <circle cx="270" cy="120" r="9" fill="#222" />
  <circle cx="300" cy="120" r="9" fill="#222" />
  <circle cx="330" cy="120" r="9" fill="#222" />
  <circle cx="360" cy="120" r="9" fill="#222" />
  <circle cx="390" cy="120" r="9" fill="#222" />
  <circle cx="420" cy="120" r="9" fill="#222" />
  <circle cx="450" cy="120" r="9" fill="#222" />
  <circle cx="480" cy="120" r="9" fill="#222" />
  <circle cx="510" cy="120" r="9" fill="#222" />
  <circle cx="540" cy="120" r="9" fill="#222" />
  <circle cx="570" cy="120" r="9" fill="#222" />
  <circle cx="600" cy="120" r="9" fill="#222" />
  <circle cx="630" cy="120" r="9" fill="#222" />
  <circle cx="660" cy="120" r="9" fill="#222" />
  <circle cx="690" cy="120" r="9" fill="#222" />
  <circle cx="720" cy="120" r="9" fill="#222" />
  <circle cx="60" cy="150" r="9" fill="#222" />
  <circle cx="90" cy="150" r="9" fill="#222" />
  <circle cx="120" cy="150" r="9" fill="#222" />
  <circle cx="150" cy="150" r="9" fill="#222" />
  <circle cx="180" cy="150" r="9" fill="#222" />
  <circle cx="210" cy="150" r="9" fill="#222" />
  <circle cx="240" cy="150" r="9" fill="#222" />
  <circle cx="270" cy="150" r="9" fill="#222" />
  <circle cx="300" cy="150" r="9" fill="#222" />
  <circle cx="330" cy="150" r="9" fill="#222" />
  <circle cx="360" cy="150" r="9" fill="#222" />
  <circle cx="390" cy="150" r="9" fill="#222" />
  <circle cx="420" cy="150" r="9" fill="#222" />
  <circle cx="450" cy="150" r="9" fill="#222" />
  <circle cx="480" cy="150" r="9" fill="#222" />
  <circle cx="510" cy="150" r="9" fill="#222" />
  <circle cx="540" cy="150" r="9" fill="#222" />
  <circle cx="570" cy="150" r="9" fill="#222" />
  <circle cx="600" cy="150" r="9" fill="#222" />
  <circle cx="630" cy="150" r="9" fill="#222" />
  <circle cx="660" cy="150" r="9" fill="#222" />
  <circle cx="690" cy="150" r="9" fill="#222" />
  <circle cx="720" cy="150" r="9" fill="#222" />
  <circle cx="90" cy="180" r="9" fill="#222" />
  <circle cx="120" cy="180" r="9" fill="#222" />
  <circle cx="150" cy="180" r="9" fill="#222" />
  <circle cx="180" cy="180" r="9" fill="#222" />
  <circle cx="210" cy="180" r="9" fill="#222" />
  <circle cx="240" cy="180" r="9" fill="#222" />
  <circle cx="270" cy="180" r="9" fill="#222" />
  <circle cx="300" cy="180" r="9" fill="#222" />
  <circle cx="330" cy="180" r="9" fill="#222" />
  <circle cx="360" cy="180" r="9" fill="#222" />
  <circle cx="390" cy="180" r="9" fill="#222" />
  <circle cx="420" cy="180" r="9" fill="#222" />
  <circle cx="450" cy="180" r="9" fill="#222" />
  <circle cx="480" cy="180" r="9" fill="#222" />
  <circle cx="510" cy="180" r="9" fill="#222" />
  <circle cx="540" cy="180" r="9" fill="#222" />
  <circle cx="570" cy="180" r="9" fill="#222" />
  <circle cx="600" cy="180" r="9" fill="#222" />
  <circle cx="630" cy="180" r="9" fill="#222" />
  <circle cx="660" cy="180" r="9" fill="#222" />
  <circle cx="90" cy="210" r="9" fill="#222" />
  <circle cx="120" cy="210" r="9" fill="#222" />
  <circle cx="150" cy="210" r="9" fill="#222" />
  <circle cx="180" cy="210" r="9" fill="#222" />
  <circle cx="210" cy="210" r="9" fill="#222" />
  <circle cx="240" cy="210" r="9" fill="#222" />
  <circle cx="270" cy="210" r="9" fill="#222" />
  <circle cx="300" cy="210" r="9" fill="#222" />
  <circle cx="330" cy="210" r="9" fill="#222" />
  <circle cx="360" cy="210" r="9" fill="#222" />
  <circle cx="390" cy="210" r="9" fill="#222" />
  <circle cx="420" cy="210" r="9" fill="#222" />
  <circle cx="450" cy="210" r="9" fill="#222" />
  <circle cx="480" cy="210" r="9" fill="#222" />
  <circle cx="510" cy="210" r="9" fill="#222" />
  <circle cx="540" cy="210" r="9" fill="#222" />
  <circle cx="570" cy="210" r="9" fill="#222" />
  <circle cx="600" cy="210" r="9" fill="#222" />
  <circle cx="630" cy="210" r="9" fill="#222" />
  <circle cx="660" cy="210" r="9" fill="#222" />
  <circle cx="60" cy="240" r="9" fill="#222" />
  <circle cx="90" cy="240" r="9" fill="#222" />
  <circle cx="120" cy="240" r="9" fill="#222" />
  <circle cx="150" cy="240" r="9" fill="#222" />
  <circle cx="180" cy="240" r="9" fill="#222" />
  <circle cx="210" cy="240" r="9" fill="#222" />
  <circle cx="240" cy="240" r="9" fill="#222" />
  <circle cx="270" cy="240" r="9" fill="#222" />
  <circle cx="300" cy="240" r="9" fill="#222" />
  <circle cx="330" cy="240" r="9" fill="#222" />
  <circle cx="360" cy="240" r="9" fill="#222" />
  <circle cx="390" cy="240" r="9" fill="#222" />
  <circle cx="420" cy="240" r="9" fill="#222" />
  <circle cx="450" cy="240" r="9" fill="#222" />
  <circle cx="480" cy="240" r="9" fill="#222" />
  <circle cx="510" cy="240" r="9" fill="#222" />
  <circle cx="540" cy="240" r="9" fill="#222" />
  <circle cx="570" cy="240" r="9" fill="#222" />
  <circle cx="600" cy="240" r="9" fill="#222" />
  <circle cx="630" cy="240" r="9" fill="#222" />
  <circle cx="60" cy="270" r="9" fill="#222" />
  <circle cx="90" cy="270" r="9" fill="#222" />
  <circle cx="120" cy="270" r="9" fill="#222" />
  <circle cx="150" cy="270" r="9" fill="#222" />
  <circle cx="180" cy="270" r="9" fill="#222" />
  <circle cx="210" cy="270" r="9" fill="#222" />
  <circle cx="240" cy="270" r="9" fill="#222" />
  <circle cx="270" cy="270" r="9" fill="#222" />
  <circle cx="300" cy="270" r="9" fill="#222" />
  <circle cx="330" cy="270" r="9" fill="#222" />
  <circle cx="360" cy="270" r="9" fill="#222" />
  <circle cx="390" cy="270" r="9" fill="#222" />
  <circle cx="420" cy="270" r="9" fill="#222" />
  <circle cx="450" cy="270" r="9" fill="#222" />
  <circle cx="480" cy="270" r="9" fill="#222" />
  <circle cx="510" cy="270" r="9" fill="#222" />
  <circle cx="540" cy="270" r="9" fill="#222" />
  <circle cx="570" cy="270" r="9" fill="#222" />
  <circle cx="600" cy="270" r="9" fill="#222" />
  <circle cx="630" cy="270" r="9" fill="#222" />
  <circle cx="30" cy="300" r="9" fill="#222" />
  <circle cx="60" cy="300" r="9" fill="#222" />
  <circle cx="90" cy="300" r="9" fill="#222" />
  <circle cx="120" cy="300" r="9" fill="#222" />
  <circle cx="150" cy="300" r="9" fill="#222" />
  <circle cx="180" cy="300" r="9" fill="#222" />
  <circle cx="210" cy="300" r="9" fill="#222" />
  <circle cx="240" cy="300" r="9" fill="#222" />
  <circle cx="270" cy="300" r="9" fill="#222" />
  <circle cx="300" cy="300" r="9" fill="#222" />
  <circle cx="330" cy="300" r="9" fill="#222" />
  <circle cx="360" cy="300" r="9" fill="#222" />
  <circle cx="390" cy="300" r="9" fill="#222" />
  <circle cx="420" cy="300" r="9" fill="#222" />
  <circle cx="450" cy="300" r="9" fill="#222" />
  <circle cx="480" cy="300" r="9" fill="#222" />
  <circle cx="510" cy="300" r="9" fill="#222" />
  <circle cx="540" cy="300" r="9" fill="#222" />
  <circle cx="570" cy="300" r="9" fill="#222" />
  <circle cx="600" cy="300" r="9" fill="#222" />
  <circle cx="630" cy="300" r="9" fill="#222" />
  <circle cx="30" cy="330" r="9" fill="#222" />
  <circle cx="60" cy="330" r="9" fill="#222" />
  <circle cx="90" cy="330" r="9" fill="#222" />
  <circle cx="120" cy="330" r="9" fill="#222" />
  <circle cx="150" cy="330" r="9" fill="#222" />
  <circle cx="180" cy="330" r="9" fill="#222" />
  <circle cx="210" cy="330" r="9" fill="#222" />
  <circle cx="240" cy="330" r="9" fill="#222" />
  <circle cx="270" cy="330" r="9" fill="#222" />
  <circle cx="300" cy="330" r="9" fill="#222" />
  <circle cx="330" cy="330" r="9" fill="#222" />
  <circle cx="360" cy="330" r="9" fill="#222" />
  <circle cx="390" cy="330" r="9" fill="#222" />
  <circle cx="420" cy="330" r="9" fill="#222" />
  <circle cx="450" cy="330" r="9" fill="#222" />
  <circle cx="480" cy="330" r="9" fill="#222" />
  <circle cx="510" cy="330" r="9" fill="#222" />
  <circle cx="540" cy="330" r="9" fill="#222" />
  <circle cx="570" cy="330" r="9" fill="#222" />
  <circle cx="600" cy="330" r="9" fill="#222" />
  <circle cx="30" cy="360" r="9" fill="#222" />
  <circle cx="60" cy="360" r="9" fill="#222" />
  <circle cx="90" cy="360" r="9" fill="#222" />
  <circle cx="120" cy="360" r="9" fill="#222" />
  <circle cx="150" cy="360" r="9" fill="#222" />
  <circle cx="180" cy="360" r="9" fill="#222" />
  <circle cx="210" cy="360" r="9" fill="#222" />
  <circle cx="240" cy="360" r="9" fill="#222" />
  <circle cx="270" cy="360" r="9" fill="#222" />
  <circle cx="300" cy="360" r="9" fill="#222" />
  <circle cx="330" cy="360" r="9" fill="#222" />
  <circle cx="360" cy="360" r="9" fill="#222" />
  <circle cx="390" cy="360" r="9" fill="#222" />
  <circle cx="420" cy="360" r="9" fill="#222" />
  <circle cx="450" cy="360" r="9" fill="#222" />
  <circle cx="480" cy="360" r="9" fill="#222" />
  <circle cx="510" cy="360" r="9" fill="#222" />
  <circle cx="540" cy="360" r="9" fill="#222" />
  <circle cx="570" cy="360" r="9" fill="#222" />
  <circle cx="30" cy="390" r="9" fill="#222" />
  <circle cx="60" cy="390" r="9" fill="#222" />
  <circle cx="90" cy="390" r="9" fill="#222" />
  <circle cx="120" cy="390" r="9" fill="#222" />
  <circle cx="150" cy="390" r="9" fill="#222" />
  <circle cx="180" cy="390" r="9" fill="#222" />
  <circle cx="210" cy="390" r="9" fill="#222" />
  <circle cx="240" cy="390" r="9" fill="#222" />
  <circle cx="270" cy="390" r="9" fill="#222" />
  <circle cx="300" cy="390" r="9" fill="#222" />
  <circle cx="330" cy="390" r="9" fill="#222" />
  <circle cx="360" cy="390" r="9" fill="#222" />
  <circle cx="390" cy="390" r="9" fill="#222" />
  <circle cx="420" cy="390" r="9" fill="#222" />
  <circle cx="450" cy="390" r="9" fill="#222" />
  <circle cx="480" cy="390" r="9" fill="#222" />
  <circle cx="510" cy="390" r="9" fill="#222" />
  <circle cx="540" cy="390" r="9" fill="#222" />
  <circle cx="570" cy="390" r="9" fill="#222" />
  <circle cx="30" cy="420" r="9" fill="#222" />
  <circle cx="60" cy="420" r="9" fill="#222" />
  <circle cx="90" cy="420" r="9" fill="#222" />
  <circle cx="120" cy="420" r="9" fill="#222" />
  <circle cx="150" cy="420" r="9" fill="#222" />
  <circle cx="180" cy="420" r="9" fill="#222" />
  <circle cx="210" cy="420" r="9" fill="#222" />
  <circle cx="240" cy="420" r="9" fill="#222" />
  <circle cx="270" cy="420" r="9" fill="#222" />
  <circle cx="300" cy="420" r="9" fill="#222" />
  <circle cx="330" cy="420" r="9" fill="#222" />
  <circle cx="360" cy="420" r="9" fill="#222" />
  <circle cx="390" cy="420" r="9" fill="#222" />
  <circle cx="420" cy="420" r="9" fill="#222" />
  <circle cx="450" cy="420" r="9" fill="#222" />
  <circle cx="480" cy="420" r="9" fill="#222" />
  <circle cx="510" cy="420" r="9" fill="#222" />
  <circle cx="540" cy="420" r="9" fill="#222" />
  <circle cx="30" cy="450" r="9" fill="#222" />
  <circle cx="60" cy="450" r="9" fill="#222" />
  <circle cx="90" cy="450" r="9" fill="#222" />
  <circle cx="120" cy="450" r="9" fill="#222" />
  <circle cx="150" cy="450" r="9" fill="#222" />
  <circle cx="180" cy="450" r="9" fill="#222" />
  <circle cx="210" cy="450" r="9" fill="#222" />
  <circle cx="240" cy="450" r="9" fill="#222" />
  <circle cx="270" cy="450" r="9" fill="#222" />
  <circle cx="300" cy="450" r="9" fill="#222" />
  <circle cx="330" cy="450" r="9" fill="#222" />
  <circle cx="360" cy="450" r="9" fill="#222" />
  <circle cx="390" cy="450" r="9" fill="#222" />
  <circle cx="420" cy="450" r="9" fill="#222" />
  <circle cx="540" cy="450" r="9" fill="#222" />
  <circle cx="150" cy="480" r="9" fill="#222" />
  <circle cx="180" cy="480" r="9" fill="#222" />
  <circle cx="210" cy="480" r="9" fill="#222" />
  <circle cx="240" cy="480" r="9" fill="#222" />
  <circle cx="270" cy="480" r="9" fill="#222" />
  <circle cx="300" cy="480" r="9" fill="#222" />
  <circle cx="330" cy="480" r="9" fill="#222" />
  <circle cx="360" cy="480" r="9" fill="#222" />
  <circle cx="390" cy="480" r="9" fill="#222" />
  <circle cx="150" cy="510" r="9" fill="#222" />
  <circle cx="180" cy="510" r="9" fill="#222" />
  <circle cx="210" cy="510" r="9" fill="#222" />
  <circle cx="240" cy="510" r="9" fill="#222" />
  <circle cx="270" cy="510" r="9" fill="#222" />
  <circle cx="300" cy="510" r="9" fill="#222" />
  <circle cx="330" cy="510" r="9" fill="#222" />
  <circle cx="360" cy="510" r="9" fill="#222" />
  <circle cx="180" cy="540" r="9" fill="#222" />
  <circle cx="210" cy="540" r="9" fill="#222" />
  <circle cx="240" cy="540" r="9" fill="#222" />
  <circle cx="270" cy="540" r="9" fill="#222" />
  <circle cx="300" cy="540" r="9" fill="#222" />
  <circle cx="330" cy="540" r="9" fill="#222" />
  <circle cx="360" cy="540" r="9" fill="#222" />
  <circle cx="180" cy="570" r="9" fill="#222" />
  <circle cx="210" cy="570" r="9" fill="#222" />
  <circle cx="240" cy="570" r="9" fill="#222" />
  <circle cx="270" cy="570" r="9" fill="#222" />
  <circle cx="300" cy="570" r="9" fill="#222" />
  <circle cx="330" cy="570" r="9" fill="#222" />
  <circle cx="360" cy="570" r="9" fill="#222" />
</svg>