<svg xmlns="http://www.w3.org/2000/svg" viewBox="0 0 744 600" width="800" height="600">
  <circle cx="120" cy="40" r="12" fill="#222" />
  <circle cx="160" cy="40" r="12" fill="#222" />
  <circle cx="200" cy="40" r="12" fill="#222" />
  <circle cx="240" cy="40" r="12" fill="#222" />
  <circle cx="320" cy="40" r="12" fill="#222" />
  <circle cx="480" cy="40" r="12" fill="#222" />
  <circle cx="520" cy="40" r="12" fill="#222" />
  <circle cx="560" cy="40" r="12" fill="#222" />
  <circle cx="640" cy="40" r="12" fill="#222" />
  <circle cx="80" cy="80" r="12" fill="#222" />
  <circle cx="120" cy="80" r="12" fill="#222" />
  <circle cx="160" cy="80" r="12" fill="#222" />
  <circle cx="200" cy="80" r="12" fill="#222" />
  <circle cx="240" cy="80" r="12" fill="#222" />
  <circle cx="280" cy="80" r="12" fill="#222" />
  <circle cx="320" cy="80" r="12" fill="#222" />
  <circle cx="360" cy="80" r="12" fill="#222" />
  <circle cx="400" cy="80" r="12" fill="#222" />
  <circle cx="440" cy="80" r="12" fill="#222" />
  <circle cx="480" cy="80" r="12" fill="#222" />
  <circle cx="520" cy="80" r="12" fill="#222" />
  <circle cx="560" cy="80" r="12" fill="#222" />
  <circle cx="600" cy="80" r="12" fill="#222" />
  <circle cx="640" cy="80" r="12" fill="#222" />
  <circle cx="680" cy="80" r="12" fill="#222" />
  <circle cx="80" cy="120" r="12" fill="#222" />
  <circle cx="120" cy="120" r="12" fill="#222" />
  <circle cx="160" cy="120" r="12" fill="#222" />
  <circle cx="200" cy="120" r="12" fill="#222" />
  <circle cx="240" cy="120" r="12" fill="#222" />
  <circle cx="280" cy="120" r="12" fill="#222" />
  <circle cx="320" cy="120" r="12" fill="#222" />
  <circle cx="360" cy="120" r="12" fill="#222" />
  <circle cx="400" cy="120" r="12" fill="#222" />
  <circle cx="440" cy="120" r="12" fill="#222" />
  <circle cx="480" cy="120" r="12" fill="#222" />
  <circle cx="520" cy="120" r="12" fill="#222" />
  <circle cx="560" cy="120" r="12" fill="#222" />
  <circle cx="600" cy="120" r="12" fill="#222" />
  <circle cx="640" cy="120" r="12" fill="#222" />
  <circle cx="680" cy="120" r="12" fill="#222" />
  <circle cx="720" cy="120" r="12" fill="#222" />
  <circle cx="80" cy="160" r="12" fill="#222" />
  <circle cx="120" cy="160" r="12" fill="#222" />
  <circle cx="160" cy="160" r="12" fill="#222" />
  <circle cx="200" cy="160" r="12" fill="#222" />
  <circle cx="240" cy="160" r="12" fill="#222" />
  <circle cx="280" cy="160" r="12" fill="#222" />
  <circle cx="320" cy="160" r="12" fill="#222" />
  <circle cx="360" cy="160" r="12" fill="#222" />
  <circle cx="400" cy="160" r="12" fill="#222" />
  <circle cx="440" cy="160" r="12" fill="#222" />
  <circle cx="480" cy="160" r="12" fill="#222" />
  <circle cx="520" cy="160" r="12" fill="#222" />
  <circle cx="560" cy="160" r="12" fill="#222" />
  <circle cx="600" cy="160" r="12" fill="#222" />
  <circle cx="640" cy="160" r="12" fill="#222" />
  <circle cx="680" cy="160" r="12" fill="#222" />
  <circle cx="80" cy="200" r="12" fill="#222" />
  <circle cx="120" cy="200" r="12" fill="#222" />
  <circle cx="160" cy="200" r="12" fill="#222" />
  <circle cx="200" cy="200" r="12" fill="#222" />
  <circle cx="240" cy="200" r="12" fill="#222" />
  <circle cx="280" cy="200" r="12" fill="#222" />
  <circle cx="320" cy="200" r="12" fill="#222" />
  <circle cx="360" cy="200" r="12" fill="#222" />
  <circle cx="400" cy="200" r="12" fill="#222" />
  <circle cx="440" cy="200" r="12" fill="#222" />
  <circle cx="480" cy="200" r="12" fill="#222" />
  <circle cx="520" cy="200" r="12" fill="#222" />
  <circle cx="560" cy="200" r="12" fill="#222" />
  <circle cx="600" cy="200" r="12" fill="#222" />
  <circle cx="640" cy="200" r="12" fill="#222" />
  <circle cx="80" cy="240" r="12" fill="#222" />
  <circle cx="120" cy="240" r="12" fill="#222" />
  <circle cx="160" cy="240" r="12" fill="#222" />
  <circle cx="200" cy="240" r="12" fill="#222" />
  <circle cx="240" cy="240" r="12" fill="#222" />
  <circle cx="280" cy="240" r="12" fill="#222" />
  <circle cx="320" cy="240" r="12" fill="#222" />
  <circle cx="360" cy="240" r="12" fill="#222" />
  <circle cx="400" cy="240" r="12" fill="#222" />
  <circle cx="440" cy="240" r="12" fill="#222" />
  <circle cx="480" cy="240" r="12" fill="#222" />
  <circle cx="520" cy="240" r="12" fill="#222" />
  <circle cx="560" cy="240" r="12" fill="#222" />
  <circle cx="600" cy="240" r="12" fill="#222" />
  <circle cx="640" cy="240" r="12" fill="#222" />
  <circle cx="40" cy="280" r="12" fill="#222" />
  <circle cx="80" cy="280" r="12" fill="#222" />
  <circle cx="120" cy="280" r="12" fill="#222" />
  <circle cx="160" cy="280" r="12" fill="#222" />
  <circle cx="200" cy="280" r="12" fill="#222" />
  <circle cx="240" cy="280" r="12" fill="#222" />
  <circle cx="280" cy="280" r="12" fill="#222" />
  <circle cx="320" cy="280" r="12" fill="#222" />
  <circle cx="360" cy="280" r="12" fill="#222" />
  <circle cx="400" cy="280" r="12" fill="#222" />
  <circle cx="440" cy="280" r="12" fill="#222" />
  <circle cx="480" cy="280" r="12" fill="#222" />
  <circle cx="520" cy="280" r="12" fill="#222" />
  <circle cx="560" cy="280" r="12" fill="#222" />
  <circle cx="600" cy="280" r="12" fill="#222" />
  <circle cx="40" cy="320" r="12" fill="#222" />
  <circle cx="80" cy="320" r="12" fill="#222" />
  <circle cx="120" cy="320" r="12" fill="#222" />
  <circle cx="160" cy="320" r="12" fill="#222" />
  <circle cx="200" cy="320" r="12" fill="#222" />
  <circle cx="240" cy="320" r="12" fill="#222" />
  <circle cx="280" cy="320" r="12" fill="#222" />
  <circle cx="320" cy="320" r="12" fill="#222" />
  <circle cx="360" cy="320" r="12" fill="#222" />
  <circle cx="400" cy="320" r="12" fill="#222" />
  <circle cx="440" cy="320" r="12" fill="#222" />
  <circle cx="480" cy="320" r="12" fill="#222" />
  <circle cx="520" cy="320" r="12" fill="#222" />
  <circle cx="560" cy="320" r="12" fill="#222" />
  <circle cx="600" cy="320" r="12" fill="#222" />
  <circle cx="40" cy="360" r="12" fill="#222" />
  <circle cx="80" cy="360" r="12" fill="#222" />
  <circle cx="120" cy="360" r="12" fill="#222" />
  <circle cx="160" cy="360" r="12" fill="#222" />
  <circle cx="200" cy="360" r="12" fill="#222" />
  <circle cx="240" cy="360" r="12" fill="#222" />
  <circle cx="280" cy="360" r="12" fill="#222" />
  <circle cx="320" cy="360" r="12" fill="#222" />
  <circle cx="360" cy="360" r="12" fill="#222" />
  <circle cx="400" cy="360" r="12" fill="#222" />
  <circle cx="440" cy="360" r="12" fill="#222" />
  <circle cx="480" cy="360" r="12" fill="#222" />
  <circle cx="520" cy="360" r="12" fill="#222" />
  <circle cx="560" cy="360" r="12" fill="#222" />
  <circle cx="40" cy="400" r="12" fill="#222" />
  <circle cx="80" cy="400" r="12" fill="#222" />
  <circle cx="120" cy="400" r="12" fill="#222" />
  <circle cx="160" cy="400" r="12" fill="#222" />
  <circle cx="200" cy="400" r="12" fill="#222" />
  <circle cx="240" cy="400" r="12" fill="#222" />
  <circle cx="280" cy="400" r="12" fill="#222" />
  <circle cx="320" cy="400" r="12" fill="#222" />
  <circle cx="360" cy="400" r="12" fill="#222" />
  <circle cx="400" cy="400" r="12" fill="#222" />
  <circle cx="440" cy="400" r="12" fill="#222" />
  <circle cx="480" cy="400" r="12" fill="#222" />
  <circle cx="520" cy="400" r="12" fill="#222" />
  <circle cx="560" cy="400" r="12" fill="#222" />
  <circle cx="40" cy="440" r="12" fill="#222" />
  <circle cx="80" cy="440" r="12" fill="#222" />
  <circle cx="120" cy="440" r="12" fill="#222" />
  <circle cx="160" cy="440" r="12" fill="#222" />
  <circle cx="200" cy="440" r="12" fill="#222" />
  <circle cx="240" cy="440" r="12" fill="#222" />
  <circle cx="280" cy="440" r="12" fill="#222" />
  <circle cx="320" cy="440" r="12" fill="#222" />
  <circle cx="360" cy="440" r="12" fill="#222" />
  <circle cx="400" cy="440" r="12" fill="#222" />
  <circle cx="440" cy="440" r="12" fill="#222" />
  <circle cx="520" cy="440" r="12" fill="#222" />
  <circle cx="160" cy="480" r="12" fill="#222" />
  <circle cx="200" cy="480" r="12" fill="#222" />
  <circle cx="240" cy="480" r="12" fill="#222" />
  <circle cx="280" cy="480" r="12" fill="#222" />
  <circle cx="320" cy="480" r="12" fill="#222" />
  <circle cx="360" cy="480" r="12" fill="#222" />
  <circle cx="400" cy="480" r="12" fill="#222" />
  <circle cx="160" cy="520" r="12" fill="#222" />
  <circle cx="200" cy="520" r="12" fill="#222" />
  <circle cx="240" cy="520" r="12" fill="#222" />
  <circle cx="280" cy="520" r="12" fill="#222" />
  <circle cx="320" cy="520" r="12" fill="#222" />
  <circle cx="360" cy="520" r="12" fill="#222" />
  <circle cx="200" cy="560" r="12" fill="#222" />
  <circle cx="240" cy="560" r="12" fill="#222" />
  <circle cx="280" cy="560" r="12" fill="#222" />
  <circle cx="320" cy="560" r="12" fill="#222" />
  <circle cx="360" cy="560" r="12" fill="#222" />
</svg>